<svg width="45" height="42" fill="none" xmlns="http://www.w3.org/2000/svg"><path d="M7.406 41.101c.016 0 .032.004.046.01a.122.122 0 0 1 .039.024l.218.208c-.17.169-.379.304-.614.396a2.39 2.39 0 0 1-.87.142c-.28.005-.558-.04-.817-.133a1.793 1.793 0 0 1-.617-.374 1.674 1.674 0 0 1-.398-.578 1.927 1.927 0 0 1-.139-.742 1.725 1.725 0 0 1 .573-1.322c.186-.163.409-.291.654-.377.269-.09.555-.135.843-.132a2.27 2.27 0 0 1 .782.12c.216.082.414.195.586.335l-.182.222a.178.178 0 0 1-.047.04.125.125 0 0 1-.073.017.178.178 0 0 1-.08-.023l-.097-.06-.137-.076a1.552 1.552 0 0 0-.43-.132 1.892 1.892 0 0 0-.325-.024 1.76 1.76 0 0 0-.605.1 1.39 1.39 0 0 0-.475.28c-.136.128-.24.28-.308.445a1.499 1.499 0 0 0-.112.587 1.53 1.53 0 0 0 .112.597c.067.164.17.314.303.443.125.12.28.215.452.275.178.064.37.096.562.095.111.001.223-.005.333-.019a1.316 1.316 0 0 0 .72-.306.171.171 0 0 1 .103-.038ZM13.704 40.054a1.81 1.81 0 0 1-.147.737 1.594 1.594 0 0 1-.41.572 1.889 1.889 0 0 1-.645.375 2.655 2.655 0 0 1-1.658 0 1.91 1.91 0 0 1-.64-.377 1.677 1.677 0 0 1-.415-.578 1.922 1.922 0 0 1 0-1.475c.093-.216.234-.413.415-.58.182-.159.4-.282.64-.363a2.61 2.61 0 0 1 1.658 0c.242.085.461.213.643.376.18.165.32.36.412.571.101.238.151.489.147.742Zm-.572 0a1.566 1.566 0 0 0-.104-.593 1.22 1.22 0 0 0-.752-.722 1.918 1.918 0 0 0-1.205 0 1.295 1.295 0 0 0-.461.28 1.191 1.191 0 0 0-.295.443 1.737 1.737 0 0 0 0 1.184 1.209 1.209 0 0 0 .756.72c.388.127.816.127 1.205 0 .175-.061.332-.156.46-.277.131-.129.23-.28.292-.443.073-.19.108-.391.104-.592ZM18.001 40.675l.057.132c.022-.047.041-.09.063-.132.021-.045.045-.088.071-.13l1.393-2.201c.027-.038.052-.062.08-.069a.374.374 0 0 1 .114-.012h.412v3.58h-.488V39.1a.974.974 0 0 1 0-.124L18.3 41.208a.203.203 0 0 1-.082.081.246.246 0 0 1-.12.03h-.079a.243.243 0 0 1-.12-.03.2.2 0 0 1-.081-.081l-1.443-2.246V41.835h-.472v-3.572h.412a.373.373 0 0 1 .115.012c.034.015.06.039.076.069l1.423 2.203c.028.04.052.083.071.128ZM23.244 40.497v1.34H22.7v-3.574h1.216c.23-.004.458.023.679.078.176.044.34.12.48.223a.922.922 0 0 1 .272.35c.065.146.096.302.093.458a.993.993 0 0 1-.395.815c-.14.107-.305.188-.483.236a2.3 2.3 0 0 1-.657.083l-.66-.01Zm0-.384h.66c.143.002.286-.017.423-.054a.924.924 0 0 0 .305-.154.686.686 0 0 0 .25-.538.605.605 0 0 0-.054-.291.69.69 0 0 0-.19-.244 1.172 1.172 0 0 0-.734-.192h-.66v1.473ZM30.573 41.842h-.43a.205.205 0 0 1-.12-.033.224.224 0 0 1-.072-.083l-.37-.864h-1.863l-.384.864a.196.196 0 0 1-.068.08.205.205 0 0 1-.123.036h-.43l1.635-3.58h.567l1.658 3.58Zm-2.7-1.329h1.539l-.65-1.457c-.049-.11-.09-.222-.122-.336l-.063.187a1.69 1.69 0 0 1-.06.152l-.643 1.454ZM32.929 38.28c.032.015.06.037.081.063l2.386 2.699v-2.779h.488v3.58h-.273a.265.265 0 0 1-.111-.022.297.297 0 0 1-.087-.066l-2.383-2.696a.938.938 0 0 1 0 .123v2.66h-.489v-3.58h.29a.26.26 0 0 1 .098.017ZM39.903 40.419v1.421h-.545V40.42l-1.508-2.156h.488a.196.196 0 0 1 .117.03c.03.024.055.051.074.081l.943 1.391c.038.06.071.114.098.166.027.052.05.102.068.151l.071-.154c.027-.056.058-.11.093-.163l.93-1.4a.378.378 0 0 1 .07-.076.183.183 0 0 1 .118-.035h.493l-1.51 2.165ZM17.731 32.256c.237.026.477.047.72.066 3.679-1.43 6.791-3.77 8.947-6.728 2.157-2.958 3.262-6.403 3.178-9.904l-4.055-3.522c.825 3.727.44 7.58-1.113 11.128s-4.21 6.65-7.677 8.96Z" fill="#AFB1B8"/><path d="m16.283 32.092.11.02c3.703-2.303 6.527-5.517 8.106-9.228 1.579-3.711 1.84-7.749.75-11.59l-5.776-5.017c2.336 4.124 3.276 8.74 2.712 13.31-.565 4.57-2.611 8.906-5.902 12.505ZM35.868 19.826c-.981 3.847-3.364 7.316-6.795 9.893a21.629 21.629 0 0 1-3.228 2.013c2.794-.713 5.361-1.974 7.505-3.686s3.806-3.829 4.86-6.187l-2.342-2.033Z" fill="#AFB1B8"/><path d="m34.949 19.26-3.334-2.897c-.064 3.303-1.145 6.531-3.13 9.348-1.986 2.818-4.804 5.122-8.16 6.673h.016c.748 0 1.495-.04 2.238-.116 3.137-1.113 5.909-2.883 8.067-5.153 2.159-2.27 3.637-4.968 4.303-7.855ZM16.766 4.16 12.788.7C9.232 1.894 6.174 3.993 4.013 6.722 1.853 9.452.691 12.684.68 15.996c.013 3.66 1.431 7.212 4.03 10.093 2.597 2.88 6.227 4.927 10.314 5.814 3.648-3.862 5.784-8.634 6.098-13.623.313-4.99-1.213-9.935-4.356-14.12ZM44.14 18.727c-.014-4.342-2.006-8.503-5.54-11.574-3.535-3.07-8.324-4.801-13.322-4.814a21.18 21.18 0 0 0-6.753 1.093l24.355 21.16a14.35 14.35 0 0 0 1.26-5.865Z" fill="#AFB1B8"/></svg>